. 
 
http://www.torrenting.com          :     Once & For all ;)


               www . Torrenting . Com 

(((((((((((((= Enjoy No RAR releases =))))))))))))))))))))


...................................NFO:....................................

.                                                                                                     
       
     
     
       
       
     
     
                                         
                                         
                EXVID                    
                                         
         
                                         
         Filled the Archives             
                                         
         
                                         
                With:                    
                                         
         
                                         
                                    
     E240                           
                                    
     SP               (C) 2009      
                                         
     
     
     
                                                                                  
                                                                                   
                   Fair.Game.1995.iNTERNAL.DVDRip.XviD-EXViDiNT                     
                                                                                   
                                                                                  
     
                                                                                               
EXViD aims to iNTERNAL those releases which have been lost in the archives.
EXViD aims to PRE non-internal releases which have poor sources and are likely skipped by others. 
http://www.imdb.com/title/tt0113010/
Subtitles: EN, FR, IT, NL, AR, ES, PT, DE, RO, BG, EN, IT
Date: 2012.01

Director: Andrew Sipes

Genres: Action | Thriller

Plot:
Max Kirkpatrick is a cop who protects Kate McQuean, a civil law attorney, from a renegade KGB
team out to terminate her.

Cast:
William Baldwin	...	Det. Max Kirkpatrick
Cindy Crawford	...	Kate McQuean
Steven Berkoff	...	Colonel Ilya Pavel Kazak
Christopher McDonald	...	Lieutenant Meyerson
Miguel Sandoval	...	Emilio Juantorena
Johann Carlo	...	Jodi Kirkpatrick
Salma Hayek	...	Rita
John Bedford Lloyd	...	Det. Louis Aragon
Olek Krupa	...	Zhukov
Jenette Goldstein	...	Rosa
Marc Macaulay	...	Navigator
Sonny Carl Davis	...	Baker
Frank Medrano	...	Graybera
Don Yesso	...	Beanpole
Paul Dillon	...	Hacker

Stats:
Format                                   : AVI
Format/Info                              : Audio Video Interleave
Format profile                           : OpenDML
File size                                : 1.36 GiB
Duration                                 : 1h 26mn
Overall bit rate                         : 2 251 Kbps

Video
ID                                       : 0
Format                                   : MPEG-4 Visual
Format profile                           : Advanced Simple@L5
Format settings, BVOP                    : 2
Format settings, QPel                    : No
Format settings, GMC                     : No warppoints
Format settings, Matrix                  : Default (MPEG)
Codec ID                                 : XVID
Codec ID/Hint                            : XviD
Duration                                 : 1h 26mn
Bit rate                                 : 1 860 Kbps
Width                                    : 640 pixels
Height                                   : 368 pixels
Display aspect ratio                     : 16:9
Frame rate                               : 25.000 fps
Color space                              : YUV
Chroma subsampling                       : 4:2:0
Bit depth                                : 8 bits
Scan type                                : Progressive
Compression mode                         : Lossy
Bits/(Pixel*Frame)                       : 0.316
Stream size                              : 1.13 GiB (83%)
Writing library                          : XviD 64

Audio
ID                                       : 1
Format                                   : AC-3
Format/Info                              : Audio Coding 3
Mode extension                           : CM (complete main)
Codec ID                                 : 2000
Duration                                 : 1h 26mn
Bit rate mode                            : Constant
Bit rate                                 : 384 Kbps
Channel(s)                               : 6 channels
Channel positions                        : Front: L C R, Side: L R, LFE
Sampling rate                            : 48.0 KHz
Bit depth                                : 16 bits
Compression mode                         : Lossy
Delay relative to video                  : 40ms
Stream size                              : 238 MiB (17%)
Alignment                                : Split accross interleaves
Interleave, duration                     : 500 ms (12.50 video frames)
Interleave, preload duration             : 500 ms



Release notes:
Enjoy!

Looking for:
75TB+ Archives
DUTCH/FLEMiSH Archives
                                                                                                    
Greets: CRBS EPiSODE FiCO FLS iLS KLASSiGER LiPSYNC MADE NODLABS RUNNER SPRiNTER      
   

                                                                    ASCII DONE BY XX^NFO 2oo9     
 

RLS-Crc: 415243414445:42EECD90